<?xml version="1.0" encoding="UTF-8" standalone="no"?>
<!-- Created with Inkscape (http://www.inkscape.org/) -->

<svg
   xmlns:dc="http://purl.org/dc/elements/1.1/"
   xmlns:cc="http://creativecommons.org/ns#"
   xmlns:rdf="http://www.w3.org/1999/02/22-rdf-syntax-ns#"
   xmlns:svg="http://www.w3.org/2000/svg"
   xmlns="http://www.w3.org/2000/svg"
   xmlns:sodipodi="http://sodipodi.sourceforge.net/DTD/sodipodi-0.dtd"
   xmlns:inkscape="http://www.inkscape.org/namespaces/inkscape"
   width="305.09625"
   height="471.84061"
   id="svg2"
   version="1.1"
   inkscape:version="0.48.3.1 r9886"
   sodipodi:docname="dasein.svg">
  <defs
     id="defs4" />
  <sodipodi:namedview
     id="base"
     pagecolor="#ffffff"
     bordercolor="#666666"
     borderopacity="1.0"
     inkscape:pageopacity="0.0"
     inkscape:pageshadow="2"
     inkscape:zoom="0.35"
     inkscape:cx="435.40509"
     inkscape:cy="478.10526"
     inkscape:document-units="px"
     inkscape:current-layer="layer1"
     showgrid="false"
     inkscape:window-width="1280"
     inkscape:window-height="776"
     inkscape:window-x="0"
     inkscape:window-y="24"
     inkscape:window-maximized="1"
     fit-margin-top="0"
     fit-margin-left="0"
     fit-margin-right="0"
     fit-margin-bottom="0" />
  <metadata
     id="metadata7">
    <rdf:RDF>
      <cc:Work
         rdf:about="">
        <dc:format>image/svg+xml</dc:format>
        <dc:type
           rdf:resource="http://purl.org/dc/dcmitype/StillImage" />
        <dc:title />
      </cc:Work>
    </rdf:RDF>
  </metadata>
  <g
     inkscape:label="Layer 1"
     inkscape:groupmode="layer"
     id="layer1"
     transform="translate(566.11938,-353.35649)">
    <g
       transform="matrix(1.4189312,0,0,1.4189312,241.38076,-43.695034)"
       style="font-size:40px;font-style:normal;font-weight:normal;line-height:125%;letter-spacing:0px;word-spacing:0px;fill:#000000;fill-opacity:1;stroke:none;font-family:Sans"
       id="text3768">
      <path
         d="m -545.54626,297.87702 3.92972,-12.75466 3.8727,1.19318 -10.09018,32.74959 -3.8727,-1.19318 1.08943,-3.53595 c -1.24616,1.15241 -2.59955,1.88001 -4.06017,2.1828 -1.4423,0.29307 -3.0334,0.17158 -4.77329,-0.36448 -2.84841,-0.8776 -4.82045,-2.72963 -5.91614,-5.5561 -1.08166,-2.82214 -1.05184,-6.08537 0.0895,-9.7897 1.1413,-3.70431 2.95313,-6.4185 5.43549,-8.14259 2.49637,-1.71973 5.16876,-2.1408 8.01717,-1.26323 1.73989,0.53609 3.12132,1.33811 4.14428,2.40607 1.04127,1.05829 1.75268,2.41437 2.13422,4.06825 m -15.73217,4.16359 c -0.8776,2.84841 -0.98483,5.26584 -0.32169,7.25232 0.68148,1.97677 2.04652,3.28074 4.09514,3.91191 2.04859,0.63118 3.91079,0.32152 5.58662,-0.92896 1.68011,-1.26451 2.95897,-3.32097 3.83658,-6.16937 0.87757,-2.84839 0.97563,-5.26097 0.29416,-7.23775 -0.67719,-1.99079 -2.04007,-3.30177 -4.08865,-3.93297 -2.04862,-0.63116 -3.91299,-0.31449 -5.5931,0.95001 -1.66179,1.25482 -2.93148,3.30642 -3.80906,6.15481"
         style="font-size:45.10437012px"
         id="path2988" />
      <path
         d="m -524.43354,316.09884 c -2.92344,-1.4744 -5.11745,-2.16161 -6.58205,-2.06164 -1.46462,0.1 -2.60355,0.95621 -3.41677,2.56867 -0.64796,1.28473 -0.74417,2.51885 -0.28863,3.70234 0.47524,1.177 1.44045,2.13245 2.89561,2.86635 2.00574,1.01159 3.96868,1.1136 5.88883,0.30606 1.93984,-0.81405 3.50482,-2.40093 4.69494,-4.76064 l 0.40662,-0.80623 -3.59855,-1.81491 m 7.9705,2.14525 -6.3373,12.56545 -3.61822,-1.82482 1.68598,-3.34292 c -1.50031,0.92062 -3.02858,1.39137 -4.58483,1.41224 -1.54967,0.008 -3.21594,-0.43796 -4.99882,-1.33714 -2.25484,-1.13722 -3.73348,-2.67227 -4.43592,-4.60517 -0.68273,-1.93941 -0.48854,-3.97097 0.58256,-6.09471 1.2496,-2.47769 3.01766,-3.92926 5.30419,-4.3547 2.29961,-0.41882 5.09466,0.20153 8.38516,1.86106 l 5.07338,2.55872 0.17851,-0.35396 c 0.83966,-1.6649 0.93701,-3.22732 0.29204,-4.68726 -0.62529,-1.46642 -1.92769,-2.69882 -3.9072,-3.6972 -1.25854,-0.63471 -2.56031,-1.10214 -3.90532,-1.4023 -1.34505,-0.30013 -2.72023,-0.42638 -4.12555,-0.37874 l 1.68598,-3.34292 c 1.5819,0.15653 3.05836,0.4243 4.42941,0.80331 1.37761,0.36594 2.65635,0.84643 3.83623,1.44146 3.18558,1.60666 5.14842,3.63257 5.88851,6.07776 0.74004,2.44521 0.26378,5.34582 -1.42879,8.70184"
         style="font-size:45.10437012px"
         id="path2990" />
      <path
         d="m -488.74222,325.80919 -2.31681,3.05245 c -0.55719,-1.16018 -1.2382,-2.23005 -2.04304,-3.20959 -0.80489,-0.97954 -1.73361,-1.86876 -2.78615,-2.66767 -1.60227,-1.21609 -2.99329,-1.88478 -4.17306,-2.00608 -1.16811,-0.1124 -2.12498,0.32259 -2.8706,1.30498 -0.56812,0.7485 -0.72986,1.55659 -0.48521,2.42426 0.25349,0.85599 1.09923,2.13382 2.53721,3.8335 l 0.91879,1.08445 c 1.91942,2.23102 3.01689,4.16074 3.29242,5.78916 0.29606,1.62559 -0.16395,3.23951 -1.38003,4.84177 -1.38478,1.82444 -3.20614,2.71845 -5.46411,2.68202 -2.2463,-0.0276 -4.63253,-1.00003 -7.15869,-2.91738 -1.05257,-0.7989 -2.07203,-1.73856 -3.05838,-2.81898 -0.98354,-1.05986 -1.95151,-2.27379 -2.9039,-3.6418 l 2.52984,-3.33314 c 0.72245,1.52527 1.54275,2.88518 2.46091,4.07974 0.92703,1.18286 1.95777,2.20481 3.09221,3.06585 1.52037,1.15395 2.88518,1.78432 4.09443,1.89111 1.2181,0.0951 2.18666,-0.33105 2.90568,-1.27835 0.66573,-0.87715 0.87791,-1.77598 0.63654,-2.69649 -0.22971,-0.91165 -1.18028,-2.34278 -2.85171,-4.29341 l -0.92302,-1.1153 c -1.68034,-1.93893 -2.63648,-3.67844 -2.86844,-5.21851 -0.2231,-1.55176 0.24234,-3.08783 1.39632,-4.60822 1.40249,-1.84784 3.14038,-2.77756 5.21365,-2.78918 2.07324,-0.0116 4.31447,0.8969 6.72371,2.72548 1.19289,0.90543 2.24905,1.8453 3.1685,2.81961 0.91939,0.97434 1.69037,1.97424 2.31294,2.99972"
         style="font-size:45.10437012px"
         id="path2992" />
      <path
         d="m -473.36026,356.93107 -1.47722,1.32161 -12.42312,-13.88585 c -1.96159,1.99135 -2.99021,4.03457 -3.08589,6.12966 -0.075,2.09624 0.78331,4.14558 2.57484,6.14804 1.03769,1.15988 2.18339,2.1542 3.43708,2.98298 1.26346,0.83969 2.65939,1.54118 4.1878,2.10448 l -2.85596,2.55511 c -1.42877,-0.67214 -2.77258,-1.46952 -4.03143,-2.39213 -1.25887,-0.92265 -2.41205,-1.96938 -3.45953,-3.1402 -2.62365,-2.93256 -3.85045,-6.0214 -3.68042,-9.26654 0.17981,-3.2342 1.72505,-6.15332 4.63572,-8.75739 3.00913,-2.69215 6.119,-4.01657 9.32961,-3.97325 3.23131,0.0445 6.08047,1.44546 8.5475,4.20293 2.21244,2.47297 3.1611,5.14083 2.846,8.00357 -0.29443,2.86389 -1.80943,5.51955 -4.54498,7.96698 m -1.81563,-3.81305 c 1.63269,-1.50014 2.53518,-3.14484 2.70748,-4.93413 0.18203,-1.77834 -0.39264,-3.4116 -1.72402,-4.89976 -1.50763,-1.68512 -3.19265,-2.61064 -5.05505,-2.77659 -1.85266,-0.15498 -3.71195,0.46431 -5.57788,1.85788 l 9.64947,10.7526"
         style="font-size:45.10437012px"
         id="path2994" />
      <path
         d="m -459.27579,357.81965 2.25276,3.36847 -20.50372,13.71245 -2.25276,-3.36847 20.50372,-13.71245 m 7.98181,-5.33806 2.25276,3.36847 -4.26551,2.85268 -2.25276,-3.36847 4.26551,-2.85268"
         style="font-size:45.10437012px"
         id="path2996" />
      <path
         d="m -450.32526,393.51355 -13.26633,6.75692 -1.83917,-3.61096 13.14859,-6.69695 c 2.08019,-1.05952 3.43052,-2.25807 4.05097,-3.59565 0.6204,-1.33759 0.51746,-2.81753 -0.3088,-4.43984 -0.99291,-1.94939 -2.39733,-3.17014 -4.21328,-3.66225 -1.81599,-0.49211 -3.7968,-0.19174 -5.94242,0.90109 l -12.42247,6.32712 -1.84915,-3.63058 21.97972,-11.1949 1.84915,3.63058 -3.4147,1.73921 c 1.76117,0.19046 3.26538,0.7013 4.51263,1.53252 1.25386,0.84431 2.27062,2.03182 3.05029,3.56255 1.28605,2.52505 1.47395,4.83501 0.5637,6.92988 -0.89722,2.0882 -2.86347,3.90528 -5.89873,5.45126"
         style="font-size:45.10437012px"
         id="path2998" />
      <path
         d="m -434.17106,427.26638 11.25595,-3.65963 1.11118,3.41764 -28.90143,9.39668 -1.11117,-3.41765 3.12046,-1.01455 c -1.4718,-0.31562 -2.69022,-0.92582 -3.65529,-1.83059 -0.94866,-0.89646 -1.67261,-2.11241 -2.17183,-3.64786 -0.81727,-2.51371 -0.48057,-4.88917 1.01011,-7.12637 1.49471,-2.22483 3.87659,-3.86867 7.14565,-4.93153 3.26905,-1.06287 6.16223,-1.1341 8.67956,-0.21369 2.52132,0.93278 4.19062,2.65603 5.00792,5.16973 0.4992,1.53546 0.62258,2.94667 0.37014,4.23364 -0.23609,1.29531 -0.8565,2.50336 -1.86125,3.62418 m -11.04896,-9.28477 c -2.51371,0.81727 -4.32169,1.97331 -5.42392,3.4681 -1.08585,1.50313 -1.33487,3.15865 -0.74707,4.96654 0.58779,1.80788 1.76279,3.0004 3.525,3.57758 1.77458,0.57312 3.91872,0.45106 6.43244,-0.36621 2.51369,-0.81729 4.31346,-1.9775 5.39932,-3.48063 1.0982,-1.50718 1.35341,-3.1647 0.76563,-4.97258 -0.58781,-1.80789 -1.769,-2.99841 -3.54357,-3.57154 -1.7582,-0.56479 -3.89414,-0.43854 -6.40783,0.37874"
         style=""
         id="path3000" />
      <path
         d="m -435.50266,450.2839 c -0.75706,-2.80323 -1.60211,-4.6588 -2.53515,-5.56672 -0.93306,-0.90792 -2.17267,-1.1531 -3.71883,-0.73553 -1.23192,0.33269 -2.10378,0.99974 -2.61559,2.00116 -0.49586,1.01058 -0.55537,2.21353 -0.17854,3.60886 0.51941,1.92328 1.61408,3.27984 3.28402,4.06969 1.6859,0.79901 3.66019,0.89298 5.92289,0.28192 l 0.77309,-0.20878 -0.93189,-3.4506 m 3.3019,6.53304 -12.04881,3.25396 -0.93698,-3.46946 3.20547,-0.86568 c -1.49607,-0.44568 -2.71163,-1.17615 -3.6467,-2.19142 -0.9225,-1.01868 -1.6146,-2.38281 -2.07629,-4.09239 -0.58392,-2.16213 -0.44563,-4.04724 0.41487,-5.65533 0.87645,-1.59892 2.33289,-2.67336 4.36931,-3.22332 2.37581,-0.64163 4.38098,-0.33345 6.01551,0.92452 1.6379,1.27055 2.8829,3.48342 3.73503,6.63861 l 1.3138,4.86478 0.3394,-0.0917 c 1.59644,-0.43116 2.68576,-1.29181 3.26798,-2.58197 0.59814,-1.28099 0.64091,-2.87056 0.12831,-4.7687 -0.32593,-1.20677 -0.78791,-2.34307 -1.38594,-3.40889 -0.59807,-1.06584 -1.3288,-2.04863 -2.19219,-2.94839 l 3.20547,-0.86569 c 0.83311,1.13722 1.53035,2.27068 2.09172,3.40037 0.5739,1.1263 1.01362,2.25512 1.31918,3.38647 0.82493,3.05462 0.64915,5.55004 -0.52732,7.48625 -1.17653,1.9362 -3.3738,3.33884 -6.59182,4.20794"
         style=""
         id="path3002" />
      <path
         d="m -418.47869,475.62806 -3.29599,0.82813 c 0.25762,-1.11194 0.37946,-2.23002 0.36552,-3.35424 -0.014,-1.12425 -0.16374,-2.25464 -0.44929,-3.39118 -0.43471,-1.73009 -1.02672,-2.96417 -1.77602,-3.70226 -0.74617,-0.72547 -1.64963,-0.95493 -2.71039,-0.68841 -0.80823,0.20307 -1.36822,0.6727 -1.67998,1.40889 -0.29916,0.73301 -0.4223,2.08636 -0.36943,4.06007 l 0.0346,1.26 c 0.0915,2.60841 -0.21886,4.55253 -0.93104,5.83238 -0.69641,1.28928 -1.90965,2.15128 -3.63972,2.58598 -1.97003,0.49497 -3.72635,0.10387 -5.26896,-1.17329 -1.53945,-1.26456 -2.65185,-3.26069 -3.33721,-5.9884 -0.28556,-1.13655 -0.47016,-2.35217 -0.5538,-3.64685 -0.0931,-1.2789 -0.09,-2.65579 0.009,-4.1307 l 3.59907,-0.90429 c -0.34566,1.45625 -0.53192,2.85231 -0.55876,4.18819 -0.0142,1.3327 0.13256,2.61152 0.44034,3.83647 0.41248,1.64168 1.0076,2.8347 1.78535,3.57909 0.79038,0.74118 1.69701,0.98328 2.71992,0.72629 0.94711,-0.23799 1.59233,-0.74245 1.93565,-1.5134 0.34648,-0.75835 0.48206,-2.27593 0.40674,-4.55277 l -0.0205,-1.28371 c -0.088,-2.27367 0.21474,-4.00778 0.9081,-5.20233 0.70597,-1.19772 1.8798,-2.00282 3.52149,-2.4153 1.99526,-0.50132 3.7136,-0.18124 5.15502,0.96026 1.44139,1.1415 2.4889,3.01297 3.14255,5.6144 0.32361,1.28809 0.5335,2.5242 0.62967,3.70835 0.0961,1.18413 0.0753,2.30367 -0.0623,3.35863"
         style=""
         id="path3004" />
      <path
         d="m -421.24182,502.62142 -1.70044,0.44544 -4.18711,-15.98412 c -2.35363,0.77806 -3.99195,1.97446 -4.91497,3.58919 -0.90714,1.62402 -1.0588,3.58855 -0.45498,5.8936 0.34974,1.33514 0.85169,2.58332 1.50585,3.74454 0.65743,1.17378 1.47532,2.29208 2.45367,3.35491 l -3.28751,0.86118 c -0.85569,-1.10842 -1.59366,-2.28131 -2.21391,-3.51867 -0.62027,-1.2374 -1.10692,-2.52996 -1.45997,-3.8777 -0.88428,-3.37569 -0.60296,-6.30967 0.84397,-8.80194 1.45022,-2.47968 3.85057,-4.15836 7.20107,-5.03603 3.46384,-0.90738 6.4539,-0.69458 8.97018,0.63837 2.53213,1.34225 4.21395,3.60046 5.04546,6.77461 0.74567,2.84665 0.41514,5.33587 -0.99158,7.46767 -1.39088,2.14107 -3.66079,3.62405 -6.80973,4.44895 m 0.10959,-3.74371 c 1.89535,-0.52344 3.27292,-1.45635 4.13271,-2.79875 0.86304,-1.32983 1.0702,-2.85126 0.62148,-4.56428 -0.50815,-1.93976 -1.46356,-3.35182 -2.86623,-4.23617 -1.39942,-0.87176 -3.11728,-1.13514 -5.1536,-0.79015 l 3.26564,12.38935"
         style=""
         id="path3006" />
      <path
         d="m -410.04929,505.18316 1.00295,3.45096 -21.00586,6.10488 -1.00295,-3.45097 21.00586,-6.10487 m 8.17728,-2.37655 1.00295,3.45097 -4.36997,1.27003 -1.00295,-3.45096 4.36997,-1.27004"
         style=""
         id="path3008" />
      <path
         d="m -409.56878,534.81148 -12.47399,4.32689 -1.17774,-3.39529 12.36328,-4.28848 c 1.95597,-0.67849 3.28759,-1.56764 3.99489,-2.66744 0.70725,-1.09982 0.79633,-2.41244 0.26723,-3.93785 -0.63583,-1.83297 -1.72155,-3.07574 -3.25717,-3.72831 -1.53567,-0.65257 -3.31223,-0.62895 -5.3297,0.0709 l -11.68054,4.05166 -1.18413,-3.41374 20.66698,-7.16881 1.18413,3.41374 -3.21076,1.11373 c 1.52409,0.38093 2.78357,1.01215 3.77846,1.89365 0.99911,0.8938 1.7483,2.06035 2.24758,3.49966 0.82353,2.37424 0.70843,4.42632 -0.34531,6.15627 -1.04148,1.72565 -2.98922,3.08347 -5.84321,4.07346"
         style=""
         id="path3010" />
      <path
         d="m -399.94492,558.66541 6.61948,-3.54147 1.0753,2.00988 -16.99657,9.09327 -1.0753,-2.00988 1.83511,-0.98179 c -0.95419,-0.0328 -1.78307,-0.27776 -2.48663,-0.73496 -0.6924,-0.45383 -1.28015,-1.13224 -1.76325,-2.03522 -0.79089,-1.47828 -0.84582,-2.99905 -0.1648,-4.56232 0.68492,-1.55599 1.98862,-2.84825 3.91112,-3.8768 1.92248,-1.02854 3.72098,-1.39597 5.39549,-1.10229 1.67838,0.30097 2.91302,1.19059 3.70393,2.66887 0.48309,0.90298 0.71765,1.77034 0.70369,2.60208 -0.003,0.83512 -0.25534,1.65866 -0.75757,2.47063 m -7.93518,-4.56387 c -1.47829,0.79089 -2.47811,1.71451 -2.99946,2.77087 -0.51019,1.05973 -0.48088,2.1212 0.0879,3.1844 0.56881,1.06319 1.43558,1.67662 2.6003,1.84029 1.17198,0.15976 2.49712,-0.15581 3.97541,-0.94669 1.47826,-0.79089 2.47249,-1.7162 2.98269,-2.77594 0.51745,-1.06364 0.49178,-2.12706 -0.077,-3.19025 -0.56883,-1.0632 -1.43924,-1.67468 -2.61122,-1.83444 -1.16083,-0.15638 -2.48037,0.16087 -3.95864,0.95176"
         style="font-size:25.37120819px"
         id="path3012" />
      <path
         d="m -397.5067,571.51538 c -1.04163,-1.51887 -1.93698,-2.45207 -2.68604,-2.7996 -0.74908,-0.34753 -1.54249,-0.23403 -2.38025,0.3405 -0.66749,0.45775 -1.04928,1.04004 -1.14537,1.74687 -0.0846,0.70896 0.1323,1.44146 0.65079,2.19749 0.71465,1.04209 1.65464,1.62421 2.81997,1.74637 1.1768,0.12429 2.3782,-0.23395 3.6042,-1.07472 l 0.41888,-0.28727 -1.28218,-1.86964 m 3.34784,3.21701 -6.52842,4.47713 -1.28919,-1.87986 1.73683,-1.1911 c -0.98901,0.0473 -1.86992,-0.13467 -2.64272,-0.54603 -0.76601,-0.41604 -1.46664,-1.08721 -2.10189,-2.01351 -0.80341,-1.17151 -1.1164,-2.32883 -0.93897,-3.47197 0.1889,-1.141 0.83505,-2.08985 1.93844,-2.84655 1.28729,-0.88281 2.55214,-1.11933 3.79455,-0.70955 1.24707,0.41659 2.45681,1.47968 3.62924,3.18926 l 1.80767,2.63588 0.1839,-0.12611 c 0.86499,-0.59322 1.33629,-1.33704 1.41391,-2.23146 0.0891,-0.89229 -0.21905,-1.85267 -0.92435,-2.88114 -0.44843,-0.65386 -0.96349,-1.23698 -1.54519,-1.74936 -0.58173,-0.51237 -1.22542,-0.94719 -1.93108,-1.30446 l 1.73682,-1.1911 c 0.73739,0.50576 1.39267,1.03778 1.96583,1.59608 0.57995,0.55364 1.08013,1.13695 1.50053,1.74994 1.13503,1.6551 1.55372,3.18557 1.25606,4.59145 -0.2977,1.40586 -1.31835,2.70668 -3.06197,3.90246"
         style="font-size:25.37120819px"
         id="path3014" />
      <path
         d="m -381.80165,580.69107 -1.62178,1.41995 c -0.17582,-0.70228 -0.43009,-1.36881 -0.76279,-1.99957 -0.33274,-0.63076 -0.74392,-1.22575 -1.23355,-1.78499 -0.74536,-0.85127 -1.43621,-1.37704 -2.07256,-1.57729 -0.63094,-0.19403 -1.20738,-0.0625 -1.72932,0.39445 -0.39769,0.34819 -0.57819,0.77517 -0.5415,1.28094 0.0429,0.50033 0.36439,1.30007 0.96453,2.39923 l 0.38363,0.70145 c 0.80535,1.44638 1.19185,2.63379 1.15953,3.56224 -0.0207,0.9292 -0.45668,1.76648 -1.30795,2.51183 -0.96935,0.8487 -2.07405,1.13535 -3.3141,0.85994 -1.23463,-0.26922 -2.43951,-1.0749 -3.61464,-2.41705 -0.48965,-0.55924 -0.94513,-1.19229 -1.36644,-1.89916 -0.42209,-0.69522 -0.81818,-1.47358 -1.18827,-2.33507 l 1.77091,-1.55053 c 0.22559,0.92214 0.52381,1.76423 0.89465,2.52628 0.37704,0.75661 0.82943,1.43628 1.35716,2.03901 0.70725,0.80778 1.388,1.30946 2.04224,1.50505 0.66044,0.19013 1.24232,0.0649 1.74564,-0.37581 0.46601,-0.40804 0.68457,-0.87931 0.65567,-1.41383 -0.0235,-0.5283 -0.38543,-1.42437 -1.08583,-2.68821 l -0.38248,-0.71893 c -0.70663,-1.2584 -1.03677,-2.32502 -0.99042,-3.19985 0.0525,-0.88028 0.48271,-1.67404 1.2905,-2.38131 0.98176,-0.85958 2.0445,-1.17535 3.18822,-0.9473 1.14369,0.22806 2.27591,0.9821 3.39666,2.26212 0.55491,0.6338 1.03059,1.27112 1.42704,1.91196 0.39642,0.64084 0.70817,1.27899 0.93525,1.91445"
         style="font-size:25.37120819px"
         id="path3016" />
      <path
         d="m -375.0039,594.91837 -0.73618,0.83734 -7.87102,-6.9201 c -0.96168,1.24392 -1.39885,2.45412 -1.3115,3.6306 0.099,1.17573 0.71602,2.26256 1.85109,3.2605 0.65746,0.57803 1.36411,1.05635 2.11995,1.43495 0.76203,0.38405 1.58875,0.68202 2.48018,0.8939 l -1.42328,1.61886 c -0.8431,-0.27936 -1.64716,-0.63438 -2.41218,-1.06505 -0.76504,-0.43068 -1.4794,-0.93776 -2.14306,-1.52125 -1.66228,-1.46146 -2.55497,-3.10406 -2.67807,-4.9278 -0.1169,-1.81829 0.54992,-3.55237 2.00048,-5.20225 1.49962,-1.70569 3.1474,-2.65431 4.94334,-2.84585 1.80759,-0.19228 3.4929,0.39868 5.05595,1.77288 1.40176,1.23242 2.11083,2.6586 2.12721,4.27853 0.028,1.61919 -0.63963,3.2041 -2.00291,4.75474 m -1.27019,-2.00749 c 0.81101,-0.94749 1.20451,-1.92665 1.1805,-2.9375 -0.0178,-1.00538 -0.44851,-1.87889 -1.29204,-2.62053 -0.95521,-0.83979 -1.95843,-1.24345 -3.00968,-1.21098 -1.04508,0.0379 -2.04182,0.50873 -2.99025,1.41238 l 6.11147,5.35663"
         style="font-size:25.37120819px"
         id="path3018" />
      <path
         d="m -368.8319,591.33384 1.86053,1.31692 -8.01606,11.32497 -1.86053,-1.31692 8.01606,-11.32497 m 3.12054,-4.40865 1.86053,1.31692 -1.66762,2.356 -1.86053,-1.31692 1.66762,-2.356"
         style="font-size:25.37120819px"
         id="path3020" />
      <path
         d="m -356.928,605.05401 -4.09897,7.30276 -1.98773,-1.11569 4.06259,-7.23795 c 0.64272,-1.1451 0.9005,-2.12745 0.77335,-2.94703 -0.12719,-0.81958 -0.63729,-1.47999 -1.53032,-1.98125 -1.0731,-0.60231 -2.11134,-0.7352 -3.11472,-0.39867 -1.0034,0.33655 -1.83657,1.09538 -2.49952,2.27649 l -3.83824,6.83824 -1.99853,-1.12177 6.7912,-12.09925 1.99853,1.12176 -1.05506,1.87971 c 0.8836,-0.46059 1.74695,-0.69105 2.59005,-0.69139 0.85028,0.004 1.69674,0.24207 2.53938,0.71502 1.38996,0.78018 2.1989,1.80249 2.42682,3.06691 0.23193,1.25723 -0.12101,2.72126 -1.05883,4.39211"
         style="font-size:25.37120819px"
         id="path3022" />
    </g>
  </g>
</svg>
