<?xml version="1.0" encoding="UTF-8" standalone="no"?>
<!-- Created with Inkscape (http://www.inkscape.org/) -->

<svg
   xmlns:dc="http://purl.org/dc/elements/1.1/"
   xmlns:cc="http://creativecommons.org/ns#"
   xmlns:rdf="http://www.w3.org/1999/02/22-rdf-syntax-ns#"
   xmlns:svg="http://www.w3.org/2000/svg"
   xmlns="http://www.w3.org/2000/svg"
   xmlns:sodipodi="http://sodipodi.sourceforge.net/DTD/sodipodi-0.dtd"
   xmlns:inkscape="http://www.inkscape.org/namespaces/inkscape"
   width="277.52298"
   height="370.75"
   id="svg2"
   version="1.1"
   inkscape:version="0.48.3.1 r9886"
   sodipodi:docname="konewka.svg">
  <defs
     id="defs4" />
  <sodipodi:namedview
     id="base"
     pagecolor="#ffffff"
     bordercolor="#666666"
     borderopacity="1.0"
     inkscape:pageopacity="0.0"
     inkscape:pageshadow="2"
     inkscape:zoom="0.35"
     inkscape:cx="-347.47255"
     inkscape:cy="287.72072"
     inkscape:document-units="px"
     inkscape:current-layer="layer1"
     showgrid="false"
     inkscape:window-width="1280"
     inkscape:window-height="776"
     inkscape:window-x="0"
     inkscape:window-y="24"
     inkscape:window-maximized="1"
     fit-margin-top="0"
     fit-margin-left="0"
     fit-margin-right="0"
     fit-margin-bottom="0" />
  <metadata
     id="metadata7">
    <rdf:RDF>
      <cc:Work
         rdf:about="">
        <dc:format>image/svg+xml</dc:format>
        <dc:type
           rdf:resource="http://purl.org/dc/dcmitype/StillImage" />
        <dc:title />
      </cc:Work>
    </rdf:RDF>
  </metadata>
  <g
     inkscape:label="Layer 1"
     inkscape:groupmode="layer"
     id="layer1"
     transform="translate(-216.75826,-372.5)">
    <path
       style="fill:#000000;fill-opacity:1;fill-rule:evenodd;stroke:none"
       d="m 418.5625,372.5 c -38.58976,0 -69.875,31.28524 -69.875,69.875 0,38.58976 31.28524,69.875 69.875,69.875 38.58976,0 69.875,-31.28524 69.875,-69.875 0,-38.58976 -31.28524,-69.875 -69.875,-69.875 z M 241.375,462.3125 c -9.98138,0.24611 -18.13756,3.84355 -22.125,10.75 -7.97488,13.81289 3.81939,35.47268 26.4375,48.53125 l 108.84375,62.84375 c 3.70079,2.13665 7.4608,3.90555 11.1875,5.3125 l 0,153.5 128.5625,0 0,-208.03125 -109.84375,0 c -0.36389,-0.21797 -0.72403,-0.44279 -1.09375,-0.65625 l -108.875,-62.84375 C 263.1597,465.18946 251.35638,462.06639 241.375,462.3125 z"
       id="rect2985"
       inkscape:connector-curvature="0" />
  </g>
</svg>
