<?xml version="1.0" encoding="UTF-8" standalone="no"?>
<!-- Created with Inkscape (http://www.inkscape.org/) -->

<svg
   xmlns:dc="http://purl.org/dc/elements/1.1/"
   xmlns:cc="http://creativecommons.org/ns#"
   xmlns:rdf="http://www.w3.org/1999/02/22-rdf-syntax-ns#"
   xmlns:svg="http://www.w3.org/2000/svg"
   xmlns="http://www.w3.org/2000/svg"
   xmlns:sodipodi="http://sodipodi.sourceforge.net/DTD/sodipodi-0.dtd"
   xmlns:inkscape="http://www.inkscape.org/namespaces/inkscape"
   width="302.61737"
   height="282.71033"
   id="svg2"
   version="1.1"
   inkscape:version="0.48.3.1 r9886"
   sodipodi:docname="kwiatek.svg">
  <defs
     id="defs4" />
  <sodipodi:namedview
     id="base"
     pagecolor="#ffffff"
     bordercolor="#666666"
     borderopacity="1.0"
     inkscape:pageopacity="0.0"
     inkscape:pageshadow="2"
     inkscape:zoom="0.35"
     inkscape:cx="914.8398"
     inkscape:cy="-137.18727"
     inkscape:document-units="px"
     inkscape:current-layer="layer1"
     showgrid="false"
     inkscape:window-width="1280"
     inkscape:window-height="776"
     inkscape:window-x="0"
     inkscape:window-y="24"
     inkscape:window-maximized="1"
     fit-margin-top="0"
     fit-margin-left="0"
     fit-margin-right="0"
     fit-margin-bottom="0" />
  <metadata
     id="metadata7">
    <rdf:RDF>
      <cc:Work
         rdf:about="">
        <dc:format>image/svg+xml</dc:format>
        <dc:type
           rdf:resource="http://purl.org/dc/dcmitype/StillImage" />
        <dc:title />
      </cc:Work>
    </rdf:RDF>
  </metadata>
  <g
     inkscape:label="Layer 1"
     inkscape:groupmode="layer"
     id="layer1"
     transform="translate(1045.5541,72.805761)">
    <path
       style="fill:none;stroke:none"
       d="m -571.42857,312.36218 c 208.05488,47.94714 49.78182,334.50971 314.28571,314.28572"
       id="path3766"
       inkscape:connector-curvature="0"
       sodipodi:nodetypes="cc" />
    <g
       id="g3792"
       transform="matrix(-0.4100432,0.9120661,-0.9120661,-0.4100432,-938.77416,739.44691)"
       style="stroke:none">
      <g
         id="g4128"
         transform="translate(-48.416787,-128.59801)">
        <path
           sodipodi:type="arc"
           style="fill:#000000;fill-opacity:1;stroke:none"
           id="path3776"
           sodipodi:cx="-675.71429"
           sodipodi:cy="339.50504"
           sodipodi:rx="61.42857"
           sodipodi:ry="61.42857"
           d="m -614.28572,339.50504 c 0,33.92606 -27.50251,61.42857 -61.42857,61.42857 -33.92607,0 -61.42857,-27.50251 -61.42857,-61.42857 0,-33.92607 27.5025,-61.42857 61.42857,-61.42857 33.92606,0 61.42857,27.5025 61.42857,61.42857 z"
           transform="translate(69.948084,57.123582)" />
        <path
           d="m -614.28572,339.50504 c 0,33.92606 -27.50251,61.42857 -61.42857,61.42857 -33.92607,0 -61.42857,-27.50251 -61.42857,-61.42857 0,-33.92607 27.5025,-61.42857 61.42857,-61.42857 33.92606,0 61.42857,27.5025 61.42857,61.42857 z"
           sodipodi:ry="61.42857"
           sodipodi:rx="61.42857"
           sodipodi:cy="339.50504"
           sodipodi:cx="-675.71429"
           id="path3780"
           style="fill:#000000;fill-opacity:1;stroke:none"
           sodipodi:type="arc"
           transform="translate(91.022655,28.815161)" />
        <path
           transform="translate(27.798985,71.277923)"
           sodipodi:type="arc"
           style="fill:#000000;fill-opacity:1;stroke:none"
           id="path3782"
           sodipodi:cx="-675.71429"
           sodipodi:cy="339.50504"
           sodipodi:rx="61.42857"
           sodipodi:ry="61.42857"
           d="m -614.28572,339.50504 c 0,33.92606 -27.50251,61.42857 -61.42857,61.42857 -33.92607,0 -61.42857,-27.50251 -61.42857,-61.42857 0,-33.92607 27.5025,-61.42857 61.42857,-61.42857 33.92606,0 61.42857,27.5025 61.42857,61.42857 z" />
        <path
           d="m -614.28572,339.50504 c 0,33.92606 -27.50251,61.42857 -61.42857,61.42857 -33.92607,0 -61.42857,-27.50251 -61.42857,-61.42857 0,-33.92607 27.5025,-61.42857 61.42857,-61.42857 33.92606,0 61.42857,27.5025 61.42857,61.42857 z"
           sodipodi:ry="61.42857"
           sodipodi:rx="61.42857"
           sodipodi:cy="339.50504"
           sodipodi:cx="-675.71429"
           id="path3784"
           style="fill:#000000;fill-opacity:1;stroke:none"
           sodipodi:type="arc"
           transform="matrix(1.1860465,0,0,1.1860465,260.66866,27.982668)" />
        <path
           d="m -614.28572,339.50504 c 0,33.92606 -27.50251,61.42857 -61.42857,61.42857 -33.92607,0 -61.42857,-27.50251 -61.42857,-61.42857 0,-33.92607 27.5025,-61.42857 61.42857,-61.42857 33.92606,0 61.42857,27.5025 61.42857,61.42857 z"
           sodipodi:ry="61.42857"
           sodipodi:rx="61.42857"
           sodipodi:cy="339.50504"
           sodipodi:cx="-675.71429"
           id="path3786"
           style="fill:#000000;fill-opacity:1;stroke:none"
           sodipodi:type="arc"
           transform="translate(166.01638,-11.053475)" />
        <path
           d="m -614.28572,339.50504 c 0,33.92606 -27.50251,61.42857 -61.42857,61.42857 -33.92607,0 -61.42857,-27.50251 -61.42857,-61.42857 0,-33.92607 27.5025,-61.42857 61.42857,-61.42857 33.92606,0 61.42857,27.5025 61.42857,61.42857 z"
           sodipodi:ry="61.42857"
           sodipodi:rx="61.42857"
           sodipodi:cy="339.50504"
           sodipodi:cx="-675.71429"
           id="path3788"
           style="fill:#000000;fill-opacity:1;stroke:none"
           sodipodi:type="arc"
           transform="translate(6.7244172,0.50658091)" />
        <path
           transform="translate(73.17175,-65.602047)"
           sodipodi:type="arc"
           style="fill:#000000;fill-opacity:1;stroke:none"
           id="path3790"
           sodipodi:cx="-675.71429"
           sodipodi:cy="339.50504"
           sodipodi:rx="61.42857"
           sodipodi:ry="61.42857"
           d="m -614.28572,339.50504 c 0,33.92606 -27.50251,61.42857 -61.42857,61.42857 -33.92607,0 -61.42857,-27.50251 -61.42857,-61.42857 0,-33.92607 27.5025,-61.42857 61.42857,-61.42857 33.92606,0 61.42857,27.5025 61.42857,61.42857 z" />
      </g>
    </g>
  </g>
</svg>
